<svg xmlns="http://www.w3.org/2000/svg" xmlns:xlink="http://www.w3.org/1999/xlink" width="35" height="35" viewBox="0 0 35 35"><defs><style>.a{fill:#fff;}.b{clip-path:url(#a);}.c{fill:#f0f0f0;}.d{fill:#0052b4;}.e{fill:#d80027;}</style><clipPath id="a"><circle class="a" cx="17.5" cy="17.5" r="17.5" transform="translate(1736.85 19.85)"/></clipPath></defs><g class="b" transform="translate(-1736.85 -19.85)"><g transform="translate(1737 20)"><circle class="c" cx="17.5" cy="17.5" r="17.5" transform="translate(-0.15 -0.15)"/><g transform="translate(0.598 0.598)"><path class="d" d="M3.73,8.41A17.287,17.287,0,0,0,.741,14.448H9.767Z" transform="translate(-0.741 -2.221)"/><path class="d" d="M40.1,14.448A17.289,17.289,0,0,0,37.112,8.41l-6.037,6.037Z" transform="translate(-6.595 -2.221)"/><path class="d" d="M.741,27.109A17.289,17.289,0,0,0,3.73,33.146l6.037-6.037Z" transform="translate(-0.741 -5.83)"/><path class="d" d="M33.146,3.73A17.288,17.288,0,0,0,27.109.741V9.767Z" transform="translate(-5.83 -0.741)"/><path class="d" d="M8.41,37.112A17.289,17.289,0,0,0,14.448,40.1V31.075Z" transform="translate(-2.221 -6.595)"/><path class="d" d="M14.447.741A17.289,17.289,0,0,0,8.41,3.73l6.037,6.037Z" transform="translate(-2.221 -0.741)"/><path class="d" d="M27.109,40.1a17.289,17.289,0,0,0,6.037-2.989l-6.037-6.037V40.1Z" transform="translate(-5.83 -6.595)"/><path class="d" d="M31.075,27.109l6.037,6.037A17.288,17.288,0,0,0,40.1,27.109Z" transform="translate(-6.595 -5.83)"/></g><path class="e" d="M34.554,15.087H19.614V.147a17.51,17.51,0,0,0-4.526,0v14.94H.147a17.51,17.51,0,0,0,0,4.526h14.94V34.554a17.51,17.51,0,0,0,4.526,0V19.614H34.554a17.51,17.51,0,0,0,0-4.526Z"/><path class="e" d="M27.109,27.109h0l7.742,7.742q.534-.534,1.02-1.114l-6.629-6.629H27.109Z" transform="translate(-5.232 -5.232)"/><path class="e" d="M14.04,27.109h0L6.3,34.851q.534.534,1.114,1.02l6.629-6.629V27.109Z" transform="translate(-1.215 -5.232)"/><path class="e" d="M13.8,14.04h0L6.053,6.3q-.534.534-1.02,1.114l6.629,6.629H13.8Z" transform="translate(-0.971 -1.215)"/><path class="e" d="M27.109,13.8h0l7.742-7.743q-.534-.534-1.114-1.02l-6.629,6.629Z" transform="translate(-5.232 -0.971)"/></g></g></svg>